<svg version="1.1" id="Layer_1" xmlns="http://www.w3.org/2000/svg" xmlns:xlink="http://www.w3.org/1999/xlink" x="0px" y="0px"
	 width="100%" viewBox="0 0 128 128" enable-background="new 0 0 128 128" xml:space="preserve">
<path fill="#FCFDFD" opacity="1.000000" stroke="none" 
	d="
M73.000000,129.000000 
	C48.666668,129.000000 24.833334,129.000000 1.000000,129.000000 
	C1.000000,86.333336 1.000000,43.666668 1.000000,1.000000 
	C43.666668,1.000000 86.333336,1.000000 129.000000,1.000000 
	C129.000000,43.666668 129.000000,86.333336 129.000000,129.000000 
	C110.500000,129.000000 92.000000,129.000000 73.000000,129.000000 
M101.497910,44.166546 
	C101.036194,44.111973 100.574486,44.057400 100.000191,43.112732 
	C100.000191,40.869869 100.000191,38.627010 100.000191,36.042686 
	C101.520081,36.042686 102.746399,36.042686 103.878838,36.864330 
	C105.469902,37.740692 107.060966,38.617054 109.600868,40.016041 
	C109.600868,35.269333 109.809090,32.150352 109.472931,29.091192 
	C109.373169,28.183258 107.742310,27.443571 106.853355,26.482546 
	C106.853355,26.482546 106.740898,26.383635 106.791908,25.719828 
	C105.838013,25.563738 104.884117,25.407648 103.296043,24.992691 
	C102.479462,24.684322 101.662872,24.375952 100.973709,23.191111 
	C100.130562,18.610466 96.610229,21.650396 94.404976,21.089695 
	C93.876846,20.955416 92.803635,22.964958 91.140175,23.887207 
	C88.047592,28.217817 83.442055,26.759930 79.262100,27.050117 
	C76.147476,27.266344 73.049446,27.721769 69.199913,27.922327 
	C63.359402,24.618099 59.647327,27.380405 56.680878,32.302010 
	C56.518143,32.572002 56.237999,32.771229 55.130745,32.865089 
	C53.631485,32.933353 52.132221,33.001617 49.807781,32.855747 
	C47.508507,34.662521 46.711082,39.876026 49.062416,41.686375 
	C52.665085,44.460155 56.817108,46.520420 61.311195,49.230389 
	C61.411156,50.836193 61.572834,53.433479 61.111881,56.176624 
	C60.740395,56.383255 60.368908,56.589890 59.311489,56.752647 
	C59.208233,57.167164 59.104977,57.581680 58.546078,58.725060 
	C51.134357,60.380516 45.023090,58.536812 40.813229,51.149654 
	C40.209362,47.089706 42.289227,42.460056 39.623341,38.837837 
	C39.106884,38.929920 38.590424,39.022007 38.073967,39.114090 
	C37.973751,40.743420 37.873539,42.372753 37.239761,44.285683 
	C36.518383,44.571629 35.797009,44.857571 35.029751,44.268238 
	C34.995670,42.344521 35.015003,40.415932 34.840759,38.504997 
	C34.824242,38.323837 33.594040,38.253349 32.414539,38.341007 
	C31.354401,39.297279 30.294258,40.253551 28.516106,41.676598 
	C23.750376,44.280033 20.982891,55.450974 24.149500,59.604282 
	C24.427004,59.968254 25.379433,59.817642 26.109352,60.600952 
	C26.430311,61.155514 26.751270,61.710075 27.501369,62.774586 
	C28.998343,63.845131 30.495314,64.915672 31.983759,66.842659 
	C33.897041,67.649063 35.810322,68.455467 37.899048,69.335815 
	C37.899048,72.142868 37.899048,75.137390 37.270863,78.127945 
	C37.260113,79.066391 37.249367,80.004845 36.542557,81.070351 
	C35.028214,82.108856 33.513870,83.147354 31.174442,84.194603 
	C26.684063,86.826920 30.111954,90.885529 29.487419,94.215355 
	C29.464407,94.338058 31.124722,94.776474 32.009247,95.000748 
	C32.009247,95.000748 31.943001,94.987465 32.053135,95.661736 
	C32.035679,96.116890 32.018223,96.572037 31.183393,97.252266 
	C29.037992,97.416199 26.892593,97.580132 24.747192,97.744072 
	C25.293747,97.220268 25.840302,96.696472 26.386858,96.172668 
	C23.729185,94.459541 20.721920,93.106720 18.496763,90.947807 
	C15.257536,87.805016 13.153255,90.811218 11.925751,92.378677 
	C10.736197,93.897682 9.658484,97.255219 13.592426,98.180283 
	C19.907345,99.665237 26.202774,102.221092 32.554913,102.379402 
	C53.866863,102.910545 75.201271,102.683594 96.524406,102.474495 
	C99.851868,102.441864 103.165405,100.989876 106.485382,100.194229 
	C106.374275,99.497314 106.263168,98.800400 106.152061,98.103485 
	C103.412857,98.103485 100.673660,98.103485 97.033928,97.857819 
	C80.438576,97.799370 63.843220,97.740921 47.644871,97.171913 
	C49.240639,94.347618 51.395542,92.760841 54.893581,93.329750 
	C56.086380,93.523743 57.676403,93.283920 58.629456,92.603935 
	C63.344360,89.239906 67.946686,85.870941 74.297546,87.176521 
	C75.733490,87.471718 77.327698,87.390213 78.764359,87.084312 
	C79.296844,86.970924 79.586029,85.714935 80.790276,84.682915 
	C82.511833,84.514740 84.233383,84.346565 85.945747,84.179291 
	C85.945747,82.545197 85.945747,81.259392 86.559212,80.231834 
	C87.705177,81.142387 88.851143,82.052940 89.470612,83.321327 
	C90.272148,83.868225 91.073677,84.415123 92.128395,85.808609 
	C95.582031,86.259918 99.029556,86.789085 102.497253,87.061295 
	C102.917671,87.094299 103.446854,85.741745 104.745575,85.022354 
	C105.511482,83.669540 107.176643,81.379105 106.899757,81.113556 
	C104.847847,79.145592 104.822098,75.047745 100.203094,74.996819 
	C98.881783,74.315880 97.560463,73.634949 96.081825,72.356201 
	C95.730713,71.909805 95.379601,71.463402 95.021629,70.989487 
	C95.021629,70.989487 95.004333,70.966621 95.183411,70.255753 
	C94.282394,69.521019 93.381378,68.786285 92.181511,67.346931 
	C95.575012,64.294357 99.497307,61.512211 98.563538,55.646332 
	C99.396271,55.082073 100.229004,54.517815 101.847778,53.982002 
	C104.524323,50.807922 104.656166,47.623260 101.497910,44.166546 
z"/>
<path fill="#1A073A" opacity="1.000000" stroke="none" 
	d="
M40.631104,52.067001 
	C45.023090,58.536812 51.134357,60.380516 59.002739,58.218491 
	C59.638737,57.406792 59.818081,57.101658 59.997421,56.796524 
	C60.368908,56.589890 60.740395,56.383255 61.670082,56.032387 
	C63.017910,55.259972 63.807533,54.631794 64.785576,54.250206 
	C65.156830,54.891537 65.339676,55.286266 65.522514,55.681000 
	C65.740540,55.489979 65.958565,55.298958 66.470200,55.229797 
	C68.827118,57.468678 70.890434,59.585697 72.699005,61.767670 
	C72.281563,61.897755 72.118851,61.962887 71.542908,61.967838 
	C64.023338,61.887817 59.813271,64.185867 60.997211,72.948349 
	C61.128899,73.922997 61.020905,74.930031 60.681183,75.914780 
	C58.952644,75.125290 57.566986,74.343063 56.135513,73.204109 
	C54.785297,67.990646 51.165024,67.581184 46.780678,68.004333 
	C46.049458,67.530212 45.580078,67.187943 44.905853,66.534027 
	C42.141315,64.150978 40.867001,64.710938 40.901836,68.054359 
	C40.927521,70.519600 41.203732,73.038795 40.771809,75.426025 
	C40.583439,76.467155 38.902271,77.238197 37.899048,78.131905 
	C37.899048,75.137390 37.899048,72.142868 37.899048,69.335815 
	C35.810322,68.455467 33.897041,67.649063 32.375572,66.416229 
	C39.229290,65.465996 33.573658,61.314930 34.857780,58.782753 
	C35.976307,55.823158 37.030334,53.302700 38.367424,50.848179 
	C39.310688,51.298409 39.970894,51.682705 40.631104,52.067001 
z"/>
<path fill="#7097BB" opacity="1.000000" stroke="none" 
	d="
M97.934456,98.103485 
	C100.673660,98.103485 103.412857,98.103485 106.152061,98.103485 
	C106.263168,98.800400 106.374275,99.497314 106.485382,100.194229 
	C103.165405,100.989876 99.851868,102.441864 96.524406,102.474495 
	C75.201271,102.683594 53.866863,102.910545 32.554913,102.379402 
	C26.202774,102.221092 19.907345,99.665237 13.592426,98.180283 
	C9.658484,97.255219 10.736197,93.897682 11.925751,92.378677 
	C13.153255,90.811218 15.257536,87.805016 18.496763,90.947807 
	C20.721920,93.106720 23.729185,94.459541 26.386858,96.172668 
	C25.840302,96.696472 25.293747,97.220268 24.747192,97.744072 
	C26.892593,97.580132 29.037992,97.416199 31.837471,97.473846 
	C37.307209,98.402649 42.122871,99.109871 47.408134,99.859650 
	C63.106934,99.913383 78.336517,99.974380 93.564697,99.855690 
	C95.025749,99.844315 96.478073,98.714233 97.934456,98.103485 
z"/>
<path fill="#190739" opacity="1.000000" stroke="none" 
	d="
M46.938534,99.817093 
	C42.122871,99.109871 37.307209,98.402649 32.246159,97.361313 
	C32.018223,96.572037 32.035679,96.116890 32.447575,95.313751 
	C34.646793,94.951736 36.555084,95.286407 38.217552,94.792938 
	C39.215599,94.496689 39.830013,92.907997 40.691658,91.508224 
	C40.794689,89.799126 40.822903,88.481964 40.928947,87.217529 
	C41.006783,87.270248 41.168381,87.174149 41.610870,87.176956 
	C44.621246,87.179771 47.189137,87.179771 49.862801,87.179771 
	C50.057755,85.113365 50.194740,83.661392 50.691563,82.148972 
	C52.422691,80.848930 53.793987,79.609344 55.356911,78.547028 
	C55.705696,78.800339 55.862846,78.876358 56.006233,78.971642 
	C55.992474,78.990898 56.039494,78.985519 56.030457,79.431793 
	C56.021420,81.455605 56.021420,83.033142 56.021420,85.011086 
	C59.217548,85.011086 62.003925,85.261604 64.698853,84.874870 
	C65.638916,84.739967 66.353325,83.032539 67.587349,82.005310 
	C69.686783,81.983604 71.369644,81.999847 73.068550,82.440750 
	C75.385986,83.421104 77.687378,83.976814 79.907181,84.643929 
	C79.825592,84.755333 79.986176,84.980026 79.986176,84.980026 
	C79.586029,85.714935 79.296844,86.970924 78.764359,87.084312 
	C77.327698,87.390213 75.733490,87.471718 74.297546,87.176521 
	C67.946686,85.870941 63.344360,89.239906 58.629456,92.603935 
	C57.676403,93.283920 56.086380,93.523743 54.893581,93.329750 
	C51.395542,92.760841 49.240639,94.347618 47.355980,97.776169 
	C47.024239,98.859306 46.981388,99.338196 46.938534,99.817093 
z"/>
<path fill="#270E3E" opacity="1.000000" stroke="none" 
	d="
M64.597160,54.003613 
	C63.807533,54.631794 63.017910,55.259972 61.981400,55.959457 
	C61.572834,53.433479 61.411156,50.836193 61.311195,49.230389 
	C56.817108,46.520420 52.665085,44.460155 49.062416,41.686375 
	C46.711082,39.876026 47.508507,34.662521 50.173553,33.312466 
	C49.480705,38.035389 52.161903,40.567280 55.391781,41.643280 
	C59.674492,43.070015 62.920067,40.661503 64.976532,35.541931 
	C68.879074,33.573784 70.313187,34.477676 70.310776,38.689430 
	C66.549522,41.024628 64.766167,43.905449 66.877083,48.389812 
	C66.621109,49.164021 66.328186,49.634888 65.646629,50.179680 
	C65.037720,51.503609 64.817436,52.753609 64.597160,54.003613 
z"/>
<path fill="#FCAE4C" opacity="1.000000" stroke="none" 
	d="
M70.619659,38.672474 
	C70.313187,34.477676 68.879074,33.573784 64.574265,35.574100 
	C62.892960,36.204185 61.778934,36.471584 60.670582,36.760742 
	C57.419090,37.609028 55.385880,36.957836 56.012505,33.003395 
	C56.237999,32.771229 56.518143,32.572002 56.680878,32.302010 
	C59.647327,27.380405 63.359402,24.618099 69.581894,28.295780 
	C69.993484,29.067785 70.023087,29.466339 70.087311,30.225990 
	C71.109276,31.046854 72.096626,31.506617 73.401306,32.112473 
	C74.797134,32.458286 75.875610,32.658005 76.968903,33.282871 
	C77.018799,34.557907 77.053894,35.407799 76.963348,36.459473 
	C76.576111,36.857513 76.282188,36.966709 75.620476,37.048183 
	C74.990753,37.835144 74.696480,38.562759 74.455101,39.317947 
	C74.507996,39.345516 74.520241,39.464180 74.046127,39.329754 
	C73.243858,39.179821 72.915688,39.164310 72.086533,39.067013 
	C71.263580,38.880978 70.941620,38.776726 70.619659,38.672474 
z"/>
<path fill="#19568C" opacity="1.000000" stroke="none" 
	d="
M47.408134,99.859650 
	C46.981388,99.338196 47.024239,98.859306 47.157478,98.031441 
	C63.843220,97.740921 80.438576,97.799370 97.484192,97.980652 
	C96.478073,98.714233 95.025749,99.844315 93.564697,99.855690 
	C78.336517,99.974380 63.106934,99.913383 47.408134,99.859650 
z"/>
<path fill="#D5AB83" opacity="1.000000" stroke="none" 
	d="
M34.793285,59.221893 
	C33.573658,61.314930 39.229290,65.465996 32.379833,65.988014 
	C30.495314,64.915672 28.998343,63.845131 27.359848,62.214653 
	C27.900242,61.220562 28.582153,60.786407 29.570999,60.156834 
	C28.270859,59.521835 27.340830,59.067600 26.432369,58.176048 
	C26.627722,53.430798 26.801510,49.122864 27.307659,44.883186 
	C28.091999,44.951775 28.543982,44.952110 28.995783,45.410713 
	C29.004038,48.319908 28.690613,50.832558 29.144274,53.198097 
	C29.407154,54.568848 30.904280,55.702896 31.937426,57.282814 
	C32.950352,58.155403 33.871819,58.688648 34.793285,59.221893 
z"/>
<path fill="#D7B288" opacity="1.000000" stroke="none" 
	d="
M92.480362,68.051552 
	C93.381378,68.786285 94.282394,69.521019 94.786270,70.641205 
	C93.653976,70.719620 92.918823,70.412582 91.803833,70.136238 
	C89.989456,71.787598 88.554909,73.408249 86.957840,74.694794 
	C85.008965,71.152298 82.523521,71.477287 79.494156,72.967926 
	C78.603279,72.557579 78.023750,72.157013 77.771606,71.744598 
	C78.754341,70.929688 79.409691,70.126640 80.065041,69.323586 
	C79.053009,68.761246 78.040985,68.198906 77.039780,67.307945 
	C77.059021,66.321838 77.067429,65.664360 77.525536,65.007133 
	C80.721718,65.043213 83.468201,65.079025 86.177116,65.532166 
	C87.080666,70.186920 90.422836,67.181709 92.480362,68.051552 
z"/>
<path fill="#20123F" opacity="1.000000" stroke="none" 
	d="
M76.954094,32.857723 
	C75.875610,32.658005 74.797134,32.458286 73.275665,31.814373 
	C71.906006,30.868418 70.979347,30.366655 70.052681,29.864891 
	C70.023087,29.466339 69.993484,29.067785 69.953957,28.369949 
	C73.049446,27.721769 76.147476,27.266344 79.262100,27.050117 
	C83.442055,26.759930 88.047592,28.217817 91.567001,23.947573 
	C91.993828,24.007938 92.013893,24.019047 92.066086,24.316162 
	C92.200058,24.797010 92.281837,24.980742 92.349548,25.416374 
	C92.359879,26.003157 92.384262,26.338039 92.330536,27.088982 
	C92.158775,28.342476 92.065117,29.179913 91.993050,30.013252 
	C92.014633,30.009153 92.015900,29.965231 91.589066,29.947670 
	C89.465134,29.986526 87.768051,30.042944 85.651794,30.028133 
	C82.824303,30.572678 80.415977,31.188448 77.764648,31.906404 
	C77.332458,32.291634 77.143272,32.574677 76.954094,32.857723 
z"/>
<path fill="#BE433F" opacity="1.000000" stroke="none" 
	d="
M55.571625,32.934242 
	C55.385880,36.957836 57.419090,37.609028 60.670582,36.760742 
	C61.778934,36.471584 62.892960,36.204185 64.406662,35.894676 
	C62.920067,40.661503 59.674492,43.070015 55.391781,41.643280 
	C52.161903,40.567280 49.480705,38.035389 50.586143,33.419533 
	C52.132221,33.001617 53.631485,32.933353 55.571625,32.934242 
z"/>
<path fill="#D9A87A" opacity="1.000000" stroke="none" 
	d="
M40.616844,91.900169 
	C39.830013,92.907997 39.215599,94.496689 38.217552,94.792938 
	C36.555084,95.286407 34.646793,94.951736 32.392509,94.976624 
	C31.943001,94.987465 32.009247,95.000748 32.038448,94.576019 
	C32.044945,90.829475 32.022236,87.507668 31.999527,84.185860 
	C33.513870,83.147354 35.028214,82.108856 37.124191,81.006096 
	C37.705830,80.941841 38.160442,81.048813 38.120045,81.422203 
	C39.109222,83.588448 40.138802,85.381294 41.168381,87.174149 
	C41.168381,87.174149 41.006783,87.270248 40.510128,87.180702 
	C38.405434,87.452568 36.730061,87.656601 35.240093,88.294014 
	C34.898357,88.440208 34.966980,90.825745 35.233891,90.906860 
	C36.968609,91.434074 38.810226,91.609550 40.616844,91.900169 
z"/>
<path fill="#E8CCAB" opacity="1.000000" stroke="none" 
	d="
M91.875214,84.962021 
	C91.073677,84.415123 90.272148,83.868225 90.109001,83.174263 
	C93.707726,82.894859 95.236320,81.398178 95.556274,78.310516 
	C96.705078,78.349724 97.469849,78.462196 98.175339,78.914566 
	C99.503784,79.883087 100.891510,80.511719 102.279243,81.140343 
	C102.454781,80.679680 102.630318,80.219017 102.805855,79.758354 
	C102.140236,79.337914 101.474617,78.917473 101.034836,78.275940 
	C101.128647,77.062714 100.996613,76.070572 100.864578,75.078438 
	C104.822098,75.047745 104.847847,79.145592 106.899757,81.113556 
	C107.176643,81.379105 105.511482,83.669540 104.111450,84.992500 
	C103.477333,84.962646 103.137672,84.662216 103.015610,84.417511 
	C102.548615,84.173622 102.203682,84.174431 101.423126,84.215439 
	C97.950073,84.491096 94.912643,84.726562 91.875214,84.962021 
z"/>
<path fill="#B6554A" opacity="1.000000" stroke="none" 
	d="
M95.172241,78.383781 
	C95.236320,81.398178 93.707726,82.894859 90.372253,82.995346 
	C88.851143,82.052940 87.705177,81.142387 86.285080,80.110641 
	C86.010956,79.989449 86.009033,80.057060 86.049210,79.685272 
	C86.433037,77.885284 86.776695,76.457092 87.120354,75.028900 
	C88.554909,73.408249 89.989456,71.787598 91.683273,70.532944 
	C93.019104,73.393890 94.095673,75.888832 95.172241,78.383781 
z"/>
<path fill="#25123E" opacity="1.000000" stroke="none" 
	d="
M92.330933,67.699242 
	C90.422836,67.181709 87.080666,70.186920 86.508057,65.514519 
	C87.509666,64.982445 88.142776,64.885338 89.123459,64.734909 
	C87.892555,63.629715 86.922859,62.759045 85.963860,61.573311 
	C85.987740,60.838287 86.000916,60.418331 86.005653,60.010796 
	C85.997215,60.023220 85.966415,60.019958 86.331848,59.990944 
	C89.127861,61.125175 91.558434,62.288422 93.989006,63.451664 
	C94.447701,62.884892 94.906395,62.318115 95.365089,61.751339 
	C94.513741,60.523018 93.662399,59.294701 93.146362,58.024658 
	C94.599022,56.996445 95.716377,56.009949 96.937119,55.277992 
	C97.361786,55.675259 97.683083,55.817997 98.004372,55.960732 
	C99.497307,61.512211 95.575012,64.294357 92.330933,67.699242 
z"/>
<path fill="#A9384F" opacity="1.000000" stroke="none" 
	d="
M38.160442,81.048813 
	C38.160442,81.048813 37.705830,80.941841 37.472225,80.942566 
	C37.249367,80.004845 37.260113,79.066391 37.584953,78.129929 
	C38.902271,77.238197 40.583439,76.467155 40.771809,75.426025 
	C41.203732,73.038795 40.927521,70.519600 40.901836,68.054359 
	C40.867001,64.710938 42.141315,64.150978 44.573288,66.811630 
	C44.313282,71.931473 44.180988,76.462059 43.691429,81.000984 
	C41.609589,81.022491 39.885014,81.035652 38.160442,81.048813 
z"/>
<path fill="#342E53" opacity="1.000000" stroke="none" 
	d="
M26.975298,44.814934 
	C26.801510,49.122864 26.627722,53.430798 26.282436,58.484177 
	C26.080086,59.455101 26.049229,59.680573 26.018373,59.906040 
	C25.379433,59.817642 24.427004,59.968254 24.149500,59.604282 
	C20.982891,55.450974 23.750376,44.280033 28.879837,41.914413 
	C29.190260,42.775806 29.136950,43.399384 28.800003,44.082226 
	C28.002676,44.365971 27.488987,44.590454 26.975298,44.814934 
z"/>
<path fill="#F0DDBB" opacity="1.000000" stroke="none" 
	d="
M29.083641,44.022961 
	C29.136950,43.399384 29.190260,42.775806 29.238844,41.681026 
	C30.294258,40.253551 31.354401,39.297279 32.678539,38.647461 
	C32.645123,43.023880 32.347706,47.093845 32.086426,51.576145 
	C32.030365,53.640141 31.938168,55.291801 31.845966,56.943466 
	C30.904280,55.702896 29.407154,54.568848 29.144274,53.198097 
	C28.690613,50.832558 29.004038,48.319908 29.072985,45.183693 
	C29.150366,44.498398 29.083641,44.022961 29.083641,44.022961 
z"/>
<path fill="#29123C" opacity="1.000000" stroke="none" 
	d="
M103.972717,36.042686 
	C102.746399,36.042686 101.520081,36.042686 100.000191,36.042686 
	C100.000191,38.627010 100.000191,40.869869 100.002396,43.589516 
	C100.004601,44.066303 100.062996,44.177299 99.781250,44.203514 
	C99.321594,44.292400 99.143677,44.355068 98.650421,44.122227 
	C99.359924,37.778751 96.044548,33.709408 92.015900,29.965231 
	C92.015900,29.965231 92.014633,30.009153 92.400314,29.974392 
	C95.539856,30.866333 98.293732,31.793036 101.416580,32.799088 
	C102.515167,33.909859 103.244774,34.941284 103.967339,35.990082 
	C103.960289,36.007450 103.972717,36.042686 103.972717,36.042686 
z"/>
<path fill="#F6A244" opacity="1.000000" stroke="none" 
	d="
M92.408646,26.672922 
	C92.384262,26.338039 92.359879,26.003157 92.522972,25.290482 
	C92.898041,24.691015 93.028656,24.439728 93.533096,24.125813 
	C96.258026,24.084394 98.552162,24.075989 100.846291,24.067583 
	C101.662872,24.375952 102.479462,24.684322 103.840668,25.329693 
	C105.170502,25.905674 105.955696,26.144655 106.740898,26.383635 
	C106.740898,26.383635 106.853355,26.482546 106.762016,26.943693 
	C106.601776,28.188215 106.532875,28.971592 106.089172,29.844677 
	C104.156738,29.956316 102.599106,29.978247 100.874390,29.698559 
	C98.620216,26.419958 95.936035,25.262041 92.408646,26.672922 
z"/>
<path fill="#E5783D" opacity="1.000000" stroke="none" 
	d="
M31.937426,57.282814 
	C31.938168,55.291801 32.030365,53.640141 32.470306,51.478851 
	C36.792217,50.275776 34.337418,47.090965 35.075630,45.143517 
	C35.797009,44.857571 36.518383,44.571629 37.576851,44.566971 
	C37.970749,46.826252 38.027557,48.804249 38.084366,50.782246 
	C37.030334,53.302700 35.976307,55.823158 34.857780,58.782753 
	C33.871819,58.688648 32.950352,58.155403 31.937426,57.282814 
z"/>
<path fill="#352A53" opacity="1.000000" stroke="none" 
	d="
M106.463974,29.754967 
	C106.532875,28.971592 106.601776,28.188215 106.741852,27.015816 
	C107.742310,27.443571 109.373169,28.183258 109.472931,29.091192 
	C109.809090,32.150352 109.600868,35.269333 109.600868,40.016041 
	C107.060966,38.617054 105.469902,37.740692 103.925781,36.453506 
	C103.972717,36.042686 103.960289,36.007450 104.354355,35.930077 
	C105.320274,33.820126 105.892128,31.787546 106.463974,29.754967 
z"/>
<path fill="#F9A948" opacity="1.000000" stroke="none" 
	d="
M95.556274,78.310516 
	C94.095673,75.888832 93.019104,73.393890 92.063095,70.502243 
	C92.918823,70.412582 93.653976,70.719620 94.696732,70.996643 
	C95.004333,70.966621 95.021629,70.989487 95.006302,71.333649 
	C95.407036,72.103218 95.823090,72.528618 96.239143,72.954018 
	C97.560463,73.634949 98.881783,74.315880 100.533836,75.037628 
	C100.996613,76.070572 101.128647,77.062714 100.714142,78.220558 
	C99.523277,78.449066 98.878952,78.511871 98.234627,78.574677 
	C97.469849,78.462196 96.705078,78.349724 95.556274,78.310516 
z"/>
<path fill="#40528B" opacity="1.000000" stroke="none" 
	d="
M38.367424,50.848179 
	C38.027557,48.804249 37.970749,46.826252 37.843632,44.425171 
	C37.873539,42.372753 37.973751,40.743420 38.073967,39.114090 
	C38.590424,39.022007 39.106884,38.929920 39.623341,38.837837 
	C42.289227,42.460056 40.209362,47.089706 40.722168,51.608330 
	C39.970894,51.682705 39.310688,51.298409 38.367424,50.848179 
z"/>
<path fill="#FBFAEF" opacity="1.000000" stroke="none" 
	d="
M35.052689,44.705879 
	C34.337418,47.090965 36.792217,50.275776 32.434166,51.066521 
	C32.347706,47.093845 32.645123,43.023880 32.934921,38.542694 
	C33.594040,38.253349 34.824242,38.323837 34.840759,38.504997 
	C35.015003,40.415932 34.995670,42.344521 35.052689,44.705879 
z"/>
<path fill="#170D3C" opacity="1.000000" stroke="none" 
	d="
M103.137672,84.662216 
	C103.137672,84.662216 103.477333,84.962646 103.701477,84.996994 
	C103.446854,85.741745 102.917671,87.094299 102.497253,87.061295 
	C99.029556,86.789085 95.582031,86.259918 92.001801,85.385315 
	C94.912643,84.726562 97.950073,84.491096 101.607330,84.363113 
	C102.510117,84.632126 102.813622,84.695999 103.137672,84.662216 
z"/>
<path fill="#30244C" opacity="1.000000" stroke="none" 
	d="
M31.586985,84.190231 
	C32.022236,87.507668 32.044945,90.829475 32.034107,94.609520 
	C31.124722,94.776474 29.464407,94.338058 29.487419,94.215355 
	C30.111954,90.885529 26.684063,86.826920 31.586985,84.190231 
z"/>
<path fill="#49354C" opacity="1.000000" stroke="none" 
	d="
M80.388229,84.831467 
	C79.986176,84.980026 79.825592,84.755333 79.871948,84.236221 
	C80.035225,82.913033 80.152145,82.108955 80.614120,81.253716 
	C82.642464,80.820732 84.325752,80.438896 86.009033,80.057060 
	C86.009033,80.057060 86.010956,79.989449 85.978348,79.981522 
	C85.945747,81.259392 85.945747,82.545197 85.945747,84.179291 
	C84.233383,84.346565 82.511833,84.514740 80.388229,84.831467 
z"/>
<path fill="#241241" opacity="1.000000" stroke="none" 
	d="
M100.910004,23.629347 
	C98.552162,24.075989 96.258026,24.084394 93.268059,24.032948 
	C92.386116,23.988415 92.200005,24.003731 92.013893,24.019047 
	C92.013893,24.019047 91.993828,24.007938 91.987473,23.998230 
	C92.803635,22.964958 93.876846,20.955416 94.404976,21.089695 
	C96.610229,21.650396 100.130562,18.610466 100.910004,23.629347 
z"/>
<path fill="#3B3158" opacity="1.000000" stroke="none" 
	d="
M101.887505,44.426540 
	C104.656166,47.623260 104.524323,50.807922 101.349716,53.587769 
	C100.786339,52.409641 100.721031,51.625755 100.716805,50.464447 
	C100.759590,49.061317 100.741310,48.035603 100.805664,46.674004 
	C100.862740,45.878902 100.837173,45.419682 101.085312,44.836517 
	C101.535179,44.617229 101.711342,44.521885 101.887505,44.426540 
z"/>
<path fill="#DCCDB9" opacity="1.000000" stroke="none" 
	d="
M100.655731,50.841866 
	C100.721031,51.625755 100.786339,52.409641 100.956696,53.573544 
	C100.229004,54.517815 99.396271,55.082073 98.283951,55.803532 
	C97.683083,55.817997 97.361786,55.675259 97.080063,54.972076 
	C97.335304,53.613285 97.550964,52.814938 97.885216,51.727783 
	C98.092812,51.250732 98.181816,51.062489 98.569656,50.883194 
	C99.464233,50.875381 100.059982,50.858624 100.655731,50.841866 
z"/>
<path fill="#68515B" opacity="1.000000" stroke="none" 
	d="
M26.063862,60.253494 
	C26.049229,59.680573 26.080086,59.455101 26.260872,58.921497 
	C27.340830,59.067600 28.270859,59.521835 29.570999,60.156834 
	C28.582153,60.786407 27.900242,61.220562 27.145279,61.959679 
	C26.751270,61.710075 26.430311,61.155514 26.063862,60.253494 
z"/>
<path fill="#B85B48" opacity="1.000000" stroke="none" 
	d="
M106.766403,26.051731 
	C105.955696,26.144655 105.170502,25.905674 104.157761,25.459126 
	C104.884117,25.407648 105.838013,25.563738 106.766403,26.051731 
z"/>
<path fill="#FAF9F4" opacity="1.000000" stroke="none" 
	d="
M101.692703,44.296543 
	C101.711342,44.521885 101.535179,44.617229 100.879906,44.813202 
	C100.400795,44.913830 99.995369,44.996250 99.961197,44.959988 
	C99.927025,44.923725 99.860802,44.849262 99.904877,44.679325 
	C99.948952,44.509388 100.062996,44.177299 100.062996,44.177299 
	C100.062996,44.177299 100.004601,44.066303 100.058685,44.034565 
	C100.574486,44.057400 101.036194,44.111973 101.692703,44.296543 
z"/>
<path fill="#D7B288" opacity="1.000000" stroke="none" 
	d="
M96.160484,72.655106 
	C95.823090,72.528618 95.407036,72.103218 95.009735,71.347412 
	C95.379601,71.463402 95.730713,71.909805 96.160484,72.655106 
z"/>
<path fill="#270E3E" opacity="1.000000" stroke="none" 
	d="
M59.654457,56.774586 
	C59.818081,57.101658 59.638737,57.406792 59.230560,57.854057 
	C59.104977,57.581680 59.208233,57.167164 59.654457,56.774586 
z"/>
<path fill="#FCF3DB" opacity="1.000000" stroke="none" 
	d="
M86.014099,59.998371 
	C86.000916,60.418331 85.987740,60.838287 85.509735,61.598236 
	C81.684128,61.999878 78.323334,62.061531 74.628487,62.049320 
	C73.847534,61.884541 73.400635,61.793625 72.953743,61.702713 
	C70.890434,59.585697 68.827118,57.468678 66.416298,54.817806 
	C66.057610,52.891220 66.046432,51.498486 66.035248,50.105751 
	C66.328186,49.634888 66.621109,49.164021 67.267654,48.278408 
	C68.696777,47.771984 69.772301,47.680309 71.273483,47.673359 
	C73.565514,48.162132 75.431885,48.566177 77.173584,49.370766 
	C78.103355,54.875660 81.912422,57.565269 86.014099,59.998371 
z"/>
<path fill="#FAB458" opacity="1.000000" stroke="none" 
	d="
M72.699005,61.767670 
	C73.400635,61.793625 73.847534,61.884541 74.665916,62.360725 
	C75.716888,63.499619 76.396362,64.253250 77.075836,65.006874 
	C77.067429,65.664360 77.059021,66.321838 76.607925,67.403900 
	C74.393173,68.038399 72.621086,68.248322 70.849007,68.458252 
	C70.837547,68.923477 70.826088,69.388710 70.814621,69.853935 
	C73.024490,70.488106 75.234352,71.122284 77.444221,71.756454 
	C78.023750,72.157013 78.603279,72.557579 79.575119,73.357307 
	C79.606979,74.421738 79.250870,75.089378 78.885117,75.751709 
	C78.264771,76.875084 76.948921,78.193329 77.199112,79.063416 
	C77.475708,80.025291 79.184204,80.575417 80.269066,81.304871 
	C80.152145,82.108955 80.035225,82.913033 79.953537,84.124817 
	C77.687378,83.976814 75.385986,83.421104 73.362221,82.193504 
	C74.252060,78.497307 74.429840,75.745522 69.969513,75.626343 
	C69.650169,75.163895 69.379128,75.016167 68.929276,74.732796 
	C68.496017,74.059746 68.185135,73.625870 67.912292,72.727715 
	C67.898880,69.746040 67.847435,67.228653 67.859695,64.432610 
	C69.267639,63.445312 70.611885,62.736664 71.956131,62.028015 
	C72.118851,61.962887 72.281563,61.897755 72.699005,61.767670 
z"/>
<path fill="#FDB04A" opacity="1.000000" stroke="none" 
	d="
M55.165279,78.369751 
	C53.793987,79.609344 52.422691,80.848930 50.315540,82.095337 
	C48.678635,81.758972 47.777588,81.415794 46.917480,80.607742 
	C46.986454,76.140640 47.014488,72.138412 47.042522,68.136177 
	C51.165024,67.581184 54.785297,67.990646 56.093975,73.646988 
	C56.068684,75.629936 56.039120,76.813293 55.851452,78.018494 
	C55.474060,78.080833 55.298038,78.190636 55.165279,78.369751 
z"/>
<path fill="#AE3146" opacity="1.000000" stroke="none" 
	d="
M71.542908,61.967838 
	C70.611885,62.736664 69.267639,63.445312 67.469833,64.534164 
	C62.790371,66.718048 65.766373,70.339561 64.733765,73.208786 
	C64.870407,77.260208 67.049850,75.857292 69.051651,74.971970 
	C69.379128,75.016167 69.650169,75.163895 69.904617,75.972748 
	C68.622070,77.711349 67.299698,78.892365 65.913216,79.864700 
	C65.849106,79.656021 65.812256,79.220963 65.822769,78.844864 
	C64.820778,78.026466 63.808262,77.584167 62.561802,77.034050 
	C61.874760,76.732224 61.421665,76.538216 60.942093,76.233368 
	C60.915611,76.122528 61.024063,75.922050 61.024063,75.922050 
	C61.020905,74.930031 61.128899,73.922997 60.997211,72.948349 
	C59.813271,64.185867 64.023338,61.887817 71.542908,61.967838 
z"/>
<path fill="#EE7432" opacity="1.000000" stroke="none" 
	d="
M46.780678,68.004333 
	C47.014488,72.138412 46.986454,76.140640 46.565868,80.584534 
	C45.465111,81.014999 44.756905,81.003815 44.048698,80.992638 
	C44.180988,76.462059 44.313282,71.931473 44.778137,67.123283 
	C45.580078,67.187943 46.049458,67.530212 46.780678,68.004333 
z"/>
<path fill="#E2B580" opacity="1.000000" stroke="none" 
	d="
M56.009560,77.996651 
	C56.039120,76.813293 56.068684,75.629936 56.139786,74.003708 
	C57.566986,74.343063 58.952644,75.125290 60.681183,75.914780 
	C61.024063,75.922050 60.915611,76.122528 60.946968,76.548851 
	C61.824432,78.426651 62.670540,79.878128 63.516647,81.329605 
	C63.340900,81.658905 63.165154,81.988197 62.989403,82.317497 
	C60.672768,81.206833 58.356133,80.096176 56.039494,78.985519 
	C56.039494,78.985519 55.992474,78.990898 56.011482,78.732666 
	C56.030495,78.474434 56.009560,77.996651 56.009560,77.996651 
z"/>
<path fill="#F6C382" opacity="1.000000" stroke="none" 
	d="
M65.646622,50.179680 
	C66.046432,51.498486 66.057610,52.891220 66.122681,54.695946 
	C65.958565,55.298958 65.740540,55.489979 65.522514,55.681000 
	C65.339676,55.286266 65.156830,54.891537 64.785576,54.250206 
	C64.817436,52.753609 65.037720,51.503609 65.646622,50.179680 
z"/>
<path fill="#D1543C" opacity="1.000000" stroke="none" 
	d="
M43.691429,81.000984 
	C44.756905,81.003815 45.465111,81.014999 46.524929,81.049393 
	C47.777588,81.415794 48.678635,81.758972 49.955704,82.155785 
	C50.194740,83.661392 50.057755,85.113365 49.862801,87.179771 
	C47.189137,87.179771 44.621246,87.179771 41.610870,87.176956 
	C40.138802,85.381294 39.109222,83.588448 38.120045,81.422203 
	C39.885014,81.035652 41.609589,81.022491 43.691429,81.000984 
z"/>
<path fill="#D9A875" opacity="1.000000" stroke="none" 
	d="
M56.030457,79.431793 
	C58.356133,80.096176 60.672768,81.206833 62.989403,82.317497 
	C63.165154,81.988197 63.340900,81.658905 63.516647,81.329605 
	C62.670540,79.878128 61.824432,78.426651 60.973450,76.659691 
	C61.421665,76.538216 61.874760,76.732224 62.749603,77.281235 
	C64.051651,78.164482 64.931953,78.692726 65.812256,79.220963 
	C65.812256,79.220963 65.849106,79.656021 66.016685,80.137283 
	C66.513107,81.093460 66.841949,81.568359 67.170784,82.043266 
	C66.353325,83.032539 65.638916,84.739967 64.698853,84.874870 
	C62.003925,85.261604 59.217548,85.011086 56.021420,85.011086 
	C56.021420,83.033142 56.021420,81.455605 56.030457,79.431793 
z"/>
<path fill="#BE3B45" opacity="1.000000" stroke="none" 
	d="
M67.587349,82.005310 
	C66.841949,81.568359 66.513107,81.093460 66.080795,80.345963 
	C67.299698,78.892365 68.622070,77.711349 70.009338,76.183929 
	C74.429840,75.745522 74.252060,78.497307 73.346184,81.768860 
	C71.369644,81.999847 69.686783,81.983604 67.587349,82.005310 
M71.815437,79.741165 
	C71.972366,79.628014 72.129295,79.514870 72.286217,79.401711 
	C72.067520,79.424454 71.848831,79.447197 71.815437,79.741165 
z"/>
<path fill="#FCE3B5" opacity="1.000000" stroke="none" 
	d="
M40.691662,91.508224 
	C38.810226,91.609550 36.968609,91.434074 35.233891,90.906860 
	C34.966980,90.825745 34.898357,88.440208 35.240093,88.294014 
	C36.730061,87.656601 38.405434,87.452568 40.432293,87.127975 
	C40.822903,88.481964 40.794689,89.799126 40.691662,91.508224 
z"/>
<path fill="#D9A875" opacity="1.000000" stroke="none" 
	d="
M55.851456,78.018494 
	C56.009560,77.996651 56.030495,78.474434 56.025246,78.713409 
	C55.862846,78.876358 55.705696,78.800339 55.356911,78.547028 
	C55.298038,78.190636 55.474060,78.080833 55.851456,78.018494 
z"/>
<path fill="#D4603E" opacity="1.000000" stroke="none" 
	d="
M70.847816,47.588631 
	C69.772301,47.680309 68.696777,47.771984 67.230698,47.975063 
	C64.766167,43.905449 66.549522,41.024628 70.310776,38.689430 
	C70.941620,38.776726 71.263580,38.880978 72.148331,39.428528 
	C72.682060,40.847980 72.653000,41.824135 72.299698,42.882103 
	C71.673073,43.977718 71.370667,44.991516 71.033539,46.269688 
	C70.948486,46.885582 70.898148,47.237110 70.847816,47.588631 
z"/>
<path fill="#FAB14E" opacity="1.000000" stroke="none" 
	d="
M71.273483,47.673363 
	C70.898148,47.237110 70.948486,46.885582 71.419296,46.266853 
	C72.928314,45.243191 74.016853,44.486732 75.443237,43.886482 
	C78.580841,45.690254 81.099701,45.313702 81.842598,42.033104 
	C82.616196,38.616913 80.765724,36.467560 77.088997,36.257687 
	C77.053894,35.407799 77.018799,34.557907 76.968903,33.282871 
	C77.143272,32.574677 77.332458,32.291634 78.111511,32.066380 
	C84.733688,34.153893 87.053055,36.656326 85.746704,41.982189 
	C85.096153,44.634441 81.848991,46.649784 79.466354,48.973045 
	C78.536942,48.985313 77.917595,48.977768 77.298256,48.970222 
	C75.431885,48.566177 73.565514,48.162132 71.273483,47.673363 
z"/>
<path fill="#25143C" opacity="1.000000" stroke="none" 
	d="
M76.963348,36.459473 
	C80.765724,36.467560 82.616196,38.616913 81.842598,42.033104 
	C81.099701,45.313702 78.580841,45.690254 75.430115,43.707146 
	C75.016296,43.127075 74.878937,42.936165 74.660797,42.460144 
	C74.609764,41.235668 74.565002,40.349922 74.520241,39.464180 
	C74.520241,39.464180 74.507996,39.345516 74.666199,39.135822 
	C75.201576,38.280365 75.578751,37.634602 75.955925,36.988842 
	C76.282188,36.966709 76.576111,36.857513 76.963348,36.459473 
z"/>
<path fill="#FAB14E" opacity="1.000000" stroke="none" 
	d="
M70.087311,30.225992 
	C70.979347,30.366655 71.906006,30.868418 72.958321,31.668280 
	C72.096626,31.506617 71.109276,31.046854 70.087311,30.225992 
z"/>
<path fill="#FAB14E" opacity="1.000000" stroke="none" 
	d="
M74.046127,39.329754 
	C74.565002,40.349922 74.609764,41.235668 74.149910,42.490707 
	C73.304840,42.840099 72.964386,42.820190 72.623932,42.800285 
	C72.653000,41.824135 72.682060,40.847980 72.649323,39.510315 
	C72.915688,39.164310 73.243858,39.179821 74.046127,39.329754 
z"/>
<path fill="#FAB14E" opacity="1.000000" stroke="none" 
	d="
M75.620476,37.048183 
	C75.578751,37.634602 75.201576,38.280365 74.613304,39.108253 
	C74.696480,38.562759 74.990753,37.835144 75.620476,37.048183 
z"/>
<path fill="#68515B" opacity="1.000000" stroke="none" 
	d="
M28.800003,44.082226 
	C29.083641,44.022961 29.150366,44.498398 29.073164,44.725422 
	C28.543982,44.952110 28.091999,44.951775 27.307659,44.883186 
	C27.488987,44.590454 28.002676,44.365971 28.800003,44.082226 
z"/>
<path fill="#F9F0DD" opacity="1.000000" stroke="none" 
	d="
M80.614120,81.253716 
	C79.184204,80.575417 77.475708,80.025291 77.199112,79.063416 
	C76.948921,78.193329 78.264771,76.875084 78.885117,75.751709 
	C79.250870,75.089378 79.606979,74.421738 79.886467,73.367096 
	C82.523521,71.477287 85.008965,71.152298 86.957825,74.694794 
	C86.776695,76.457092 86.433037,77.885284 86.049210,79.685272 
	C84.325752,80.438896 82.642464,80.820732 80.614120,81.253716 
z"/>
<path fill="#E0AD7A" opacity="1.000000" stroke="none" 
	d="
M77.525543,65.007133 
	C76.396362,64.253250 75.716888,63.499619 74.999977,62.434586 
	C78.323334,62.061531 81.684128,61.999878 85.499039,61.913300 
	C86.922859,62.759045 87.892555,63.629715 89.123459,64.734909 
	C88.142776,64.885338 87.509666,64.982445 86.545624,65.097198 
	C83.468201,65.079025 80.721718,65.043213 77.525543,65.007133 
z"/>
<path fill="#FEF7E6" opacity="1.000000" stroke="none" 
	d="
M77.771606,71.744598 
	C75.234352,71.122284 73.024490,70.488106 70.814621,69.853935 
	C70.826088,69.388710 70.837547,68.923477 70.849007,68.458252 
	C72.621086,68.248322 74.393173,68.038399 76.597107,67.732521 
	C78.040985,68.198906 79.053009,68.761246 80.065041,69.323586 
	C79.409691,70.126640 78.754341,70.929688 77.771606,71.744598 
z"/>
<path fill="#FEFDF6" opacity="1.000000" stroke="none" 
	d="
M79.776421,48.953232 
	C81.848991,46.649784 85.096153,44.634441 85.746704,41.982189 
	C87.053055,36.656326 84.733688,34.153893 78.354523,31.964193 
	C80.415977,31.188448 82.824303,30.572678 85.677917,30.412254 
	C88.510551,33.307148 89.618958,36.019947 89.250572,39.626968 
	C88.939133,42.676273 90.967857,42.083401 93.020920,40.956551 
	C93.472717,41.062870 93.649918,41.119537 94.032227,41.493183 
	C95.062737,42.740768 95.888138,43.671379 96.330116,44.728386 
	C94.788261,45.306522 93.582199,46.231033 92.480446,46.120052 
	C89.356277,45.805363 88.838036,47.433613 88.822723,50.173763 
	C86.044182,50.632118 83.491920,50.833965 80.630859,50.928413 
	C80.140182,50.198421 79.958305,49.575829 79.776421,48.953232 
z"/>
<path fill="#EAA753" opacity="1.000000" stroke="none" 
	d="
M96.713539,44.601990 
	C95.888138,43.671379 95.062737,42.740768 94.129021,41.213158 
	C93.965256,39.993160 93.909805,39.370155 93.854347,38.747154 
	C93.485001,39.467068 93.115662,40.186981 92.746315,40.906895 
	C90.967857,42.083401 88.939133,42.676273 89.250572,39.626968 
	C89.618958,36.019947 88.510551,33.307148 86.097092,30.483482 
	C87.768051,30.042944 89.465134,29.986526 91.589066,29.947670 
	C96.044548,33.709408 99.359924,37.778751 98.747803,44.230587 
	C99.160515,44.634457 99.227890,44.916237 98.983551,45.002945 
	C98.446007,45.269726 98.152809,45.449795 97.652817,45.669521 
	C97.201851,45.340115 96.957695,44.971054 96.713539,44.601990 
z"/>
<path fill="#BB3C42" opacity="1.000000" stroke="none" 
	d="
M92.330536,27.088982 
	C95.936035,25.262041 98.620216,26.419958 100.862762,30.038544 
	C101.028015,31.360006 101.037811,32.039871 101.047607,32.719738 
	C98.293732,31.793036 95.539856,30.866333 92.378723,29.978489 
	C92.065117,29.179913 92.158775,28.342476 92.330536,27.088982 
z"/>
<path fill="#BB3C42" opacity="1.000000" stroke="none" 
	d="
M92.066086,24.316162 
	C92.200005,24.003731 92.386116,23.988415 92.837250,24.065964 
	C93.028656,24.439728 92.898041,24.691015 92.537033,25.038582 
	C92.281837,24.980742 92.200058,24.797010 92.066086,24.316162 
z"/>
<path fill="#FCFDFD" opacity="1.000000" stroke="none" 
	d="
M98.175339,78.914566 
	C98.878952,78.511871 99.523277,78.449066 100.488297,78.441650 
	C101.474617,78.917473 102.140236,79.337914 102.805855,79.758354 
	C102.630318,80.219017 102.454781,80.679680 102.279243,81.140343 
	C100.891510,80.511719 99.503784,79.883087 98.175339,78.914566 
z"/>
<path fill="#B6554A" opacity="1.000000" stroke="none" 
	d="
M103.015610,84.417511 
	C102.813622,84.695999 102.510117,84.632126 102.042953,84.322922 
	C102.203682,84.174431 102.548615,84.173622 103.015610,84.417511 
z"/>
<path fill="#1E0C3C" opacity="1.000000" stroke="none" 
	d="
M79.466354,48.973045 
	C79.958305,49.575829 80.140182,50.198421 80.840805,51.242226 
	C85.096741,55.398006 88.980812,54.380424 93.311600,52.011124 
	C95.066757,52.006805 96.416687,52.011700 97.766624,52.016594 
	C97.550964,52.814938 97.335304,53.613285 96.976685,54.717545 
	C95.716377,56.009949 94.599022,56.996445 92.827713,57.798119 
	C89.498184,56.851322 86.320992,54.795563 85.966415,60.019958 
	C85.966415,60.019958 85.997215,60.023220 86.005661,60.010796 
	C81.912422,57.565269 78.103355,54.875660 77.173584,49.370766 
	C77.917595,48.977768 78.536942,48.985313 79.466354,48.973045 
z"/>
<path fill="#E94F5E" opacity="1.000000" stroke="none" 
	d="
M86.331848,59.990944 
	C86.320992,54.795563 89.498184,56.851322 92.492401,57.839836 
	C93.662399,59.294701 94.513741,60.523018 95.365089,61.751339 
	C94.906395,62.318115 94.447701,62.884892 93.989006,63.451664 
	C91.558434,62.288422 89.127861,61.125175 86.331848,59.990944 
z"/>
<path fill="#B85B48" opacity="1.000000" stroke="none" 
	d="
M101.416580,32.799088 
	C101.037811,32.039871 101.028015,31.360006 101.029846,30.340158 
	C102.599106,29.978247 104.156738,29.956316 106.089172,29.844677 
	C105.892128,31.787546 105.320274,33.820126 104.361404,35.912708 
	C103.244774,34.941284 102.515167,33.909859 101.416580,32.799088 
z"/>
<path fill="#FEFDF6" opacity="1.000000" stroke="none" 
	d="
M99.227890,44.916237 
	C99.227890,44.916237 99.160515,44.634457 99.063141,44.526096 
	C99.143677,44.355068 99.321594,44.292400 99.781250,44.203514 
	C100.062996,44.177299 99.948952,44.509388 99.748650,44.714043 
	C99.548347,44.918694 99.227890,44.916237 99.227890,44.916237 
z"/>
<path fill="#FAF9F4" opacity="1.000000" stroke="none" 
	d="
M98.983551,45.002945 
	C99.227890,44.916237 99.548347,44.918694 99.704575,44.883980 
	C99.860802,44.849262 99.927025,44.923725 100.000320,45.234001 
	C100.290085,46.032814 100.506554,46.521351 100.723022,47.009888 
	C100.741310,48.035603 100.759590,49.061317 100.716805,50.464447 
	C100.059982,50.858624 99.464233,50.875381 98.517197,50.452351 
	C98.063812,48.551662 97.961716,47.090763 97.859619,45.629868 
	C98.152809,45.449795 98.446007,45.269726 98.983551,45.002945 
z"/>
<path fill="#DCCDB9" opacity="1.000000" stroke="none" 
	d="
M100.805664,46.674004 
	C100.506554,46.521351 100.290085,46.032814 100.034492,45.270264 
	C99.995369,44.996250 100.400795,44.913830 100.606201,44.937149 
	C100.837173,45.419682 100.862740,45.878902 100.805664,46.674004 
z"/>
<path fill="#2F224C" opacity="1.000000" stroke="none" 
	d="
M97.652817,45.669525 
	C97.961716,47.090763 98.063812,48.551662 98.218369,50.443405 
	C98.181816,51.062489 98.092812,51.250732 97.885216,51.727787 
	C96.416687,52.011700 95.066757,52.006805 93.014175,51.893032 
	C91.224022,51.161854 90.136505,50.539555 89.048988,49.917255 
	C88.838036,47.433613 89.356277,45.805363 92.480446,46.120052 
	C93.582199,46.231033 94.788261,45.306522 96.330116,44.728386 
	C96.957695,44.971054 97.201851,45.340115 97.652817,45.669525 
z"/>
<path fill="#F68032" opacity="1.000000" stroke="none" 
	d="
M64.972939,73.009628 
	C65.766373,70.339561 62.790371,66.718048 67.406128,64.812820 
	C67.847435,67.228653 67.898880,69.746040 67.553940,72.668671 
	C66.429352,73.052475 65.701141,73.031052 64.972939,73.009628 
z"/>
<path fill="#BE3B45" opacity="1.000000" stroke="none" 
	d="
M64.733765,73.208786 
	C65.701141,73.031052 66.429352,73.052475 67.515900,73.132950 
	C68.185135,73.625870 68.496017,74.059746 68.929276,74.732796 
	C67.049850,75.857292 64.870407,77.260208 64.733765,73.208786 
z"/>
<path fill="#BE3B45" opacity="1.000000" stroke="none" 
	d="
M65.822769,78.844864 
	C64.931953,78.692726 64.051651,78.164482 62.983547,77.389053 
	C63.808262,77.584167 64.820778,78.026466 65.822769,78.844864 
z"/>
<path fill="#AE3146" opacity="1.000000" stroke="none" 
	d="
M71.722786,79.605545 
	C71.848831,79.447197 72.067520,79.424454 72.286224,79.401718 
	C72.129295,79.514870 71.972366,79.628014 71.722786,79.605545 
z"/>
<path fill="#FCAE4C" opacity="1.000000" stroke="none" 
	d="
M72.299698,42.882103 
	C72.964386,42.820190 73.304840,42.840099 74.156174,42.829441 
	C74.878937,42.936165 75.016296,43.127075 75.092270,43.550941 
	C74.016853,44.486732 72.928314,45.243191 71.454010,46.002483 
	C71.370667,44.991516 71.673073,43.977718 72.299698,42.882103 
z"/>
<path fill="#FBF3D0" opacity="1.000000" stroke="none" 
	d="
M88.822723,50.173763 
	C90.136505,50.539555 91.224022,51.161854 92.608955,51.902245 
	C88.980812,54.380424 85.096741,55.398006 81.149605,51.349625 
	C83.491920,50.833965 86.044182,50.632118 88.822723,50.173763 
z"/>
<path fill="#D3CFD8" opacity="1.000000" stroke="none" 
	d="
M93.020920,40.956551 
	C93.115662,40.186981 93.485001,39.467068 93.854347,38.747154 
	C93.909805,39.370155 93.965256,39.993160 93.923920,40.896187 
	C93.649918,41.119537 93.472717,41.062870 93.020920,40.956551 
z"/>
</svg>